<svg xmlns="http://www.w3.org/2000/svg" xmlns:xlink="http://www.w3.org/1999/xlink" width="2146" height="4762" viewBox="0 0 2146 4762">
  <defs>
    <clipPath id="clip-Web_1920_1">
      <rect width="2146" height="4762"/>
    </clipPath>
  </defs>
  <g id="Web_1920_1" data-name="Web 1920 – 1" clip-path="url(#clip-Web_1920_1)">
    <rect width="2146" height="4762" fill="#fff"/>
    <g id="Group_60" data-name="Group 60" transform="translate(25 58)">
      <path id="Path_653" data-name="Path 653" d="M1820.246,3905.3s135.934-749.667-306.332-732.017c-81.819,3.266-253.154,44.8-315.388,48.287-274.366,15.374-291.334,77.165-291.334,77.165s119.734,209.591-136.272,200.145,364.859,497.765,364.859,497.765S976.21,3628.2,1483.733,3692.384,1820.246,3905.3,1820.246,3905.3Z" transform="translate(423.222 -1845.701)" fill="#023e8a" opacity="0.2"/>
      <path id="Path_652" data-name="Path 652" d="M178.709,3477.479s23.225-57.385-184.618-197.014-100.814-251.816-174.484-149.4-72.7,246.587-72.7,246.587,178.23,36.7,156.319,99.824S178.709,3477.479,178.709,3477.479Z" transform="translate(393.09 -2113)" fill="#023e8a"/>
      <g id="Group_49" data-name="Group 49">
        <text id="Get_started" data-name="Get started" transform="translate(329 667.5)" fill="#fff" font-size="17" font-family="SegoeUI, Segoe UI"><tspan x="0" y="0">Get started</tspan></text>
      </g>
      <path id="Path_651" data-name="Path 651" d="M-257.423,2045.492s29.835,146.5-72.023,177.451-135.562-35.626-135.562-35.626l-28.78-105.361,209.036-72.024Z" transform="translate(423 -2113)" fill="#0077b6"/>
      <ellipse id="Ellipse_80" data-name="Ellipse 80" cx="48.5" cy="69.5" rx="48.5" ry="69.5" transform="translate(7.521 809.528) rotate(40)" fill="#03045e"/>
      <ellipse id="Ellipse_81" data-name="Ellipse 81" cx="48.5" cy="69.5" rx="48.5" ry="69.5" transform="translate(58.173 2128.878) rotate(-40)" fill="#03045e" opacity="0.1"/>
      <path id="Path_654" data-name="Path 654" d="M-467.626,4852.669s227.59-126.006,322.962,183.936,279.49,106.614,238.712,400.909,149.471,365.567,149.471,365.567,290.642,141.107,55.908,278.787-734.994,186.37-734.994,186.37Z" transform="translate(396.838 -2314.1)" fill="#023e8a"/>
      <ellipse id="Ellipse_82" data-name="Ellipse 82" cx="48.5" cy="69.5" rx="48.5" ry="69.5" transform="matrix(0.174, 0.985, -0.985, 0.174, 157.888, 4016.381)" fill="#03045e"/>
      <path id="Path_655" data-name="Path 655" d="M1345.927,651.568c21.169,75.362-182.593,247.544-541.092,151.425C516.194,725.6,263.744,692.825,263.744,651.568S506,653.587,804.836,653.587,1334.77,611.848,1345.927,651.568Z" transform="translate(-707.72 3162.212)" fill="#3f3d56"/>
      <path id="Path_656" data-name="Path 656" d="M1345.927,651.568c21.169,75.362-182.593,247.544-541.092,151.425C516.194,725.6,263.744,692.825,263.744,651.568S506,653.587,804.836,653.587,1334.77,611.848,1345.927,651.568Z" transform="translate(-707.72 3162.212)" fill="#0096c7" opacity="0.1"/>
      <path id="Path_657" data-name="Path 657" d="M1345.927,673.109c21.169,75.362-182.593,170.823-541.092,74.7-288.642-77.39-541.092-33.446-541.092-74.7s242.255-74.7,541.092-74.7S1334.77,633.389,1345.927,673.109Z" transform="translate(-707.72 3140.671)" fill="#063e8a"/>
      <ellipse id="Ellipse_83" data-name="Ellipse 83" cx="41.85" cy="14.487" rx="41.85" ry="14.487" transform="translate(229.256 3838.928)" opacity="0.1"/>
      <ellipse id="Ellipse_84" data-name="Ellipse 84" cx="41.85" cy="14.487" rx="41.85" ry="14.487" transform="translate(399.876 3838.928)" opacity="0.1"/>
      <ellipse id="Ellipse_85" data-name="Ellipse 85" cx="136.818" cy="37.021" rx="136.818" ry="37.021" transform="translate(-39.55 3752.008)" fill="#0096c7" opacity="0.1"/>
      <path id="Path_660" data-name="Path 660" d="M876.166,336.44v44.5H709.583V339.161h-4.829V872.443h4.829V776.972H876.166v95.471h4.829v-536Zm0,49.332v73.411H709.583V385.772ZM709.583,615.663V542.252H876.166v73.411Zm166.583,4.829V693.9H709.583V620.492ZM709.583,537.423V464.011H876.166v73.412Zm0,234.72V698.731H876.166v73.412Z" transform="translate(-438.873 2980.972)" fill="#48cae4"/>
      <path id="Path_661" data-name="Path 661" d="M678.369,343.023v6.671s-4.765,1.906-4.765,9.529-3.812,36.212-3.812,36.212,6.671,5.718,12.388,3.812a23.279,23.279,0,0,0,8.576-4.765l.953-29.541-3.812-7.623V343.976Z" transform="translate(-460.186 2984.984)" fill="#0077b6"/>
      <path id="Path_662" data-name="Path 662" d="M799.676,178.44s-16.573,1.906-16.573,9.529-13.258,36.212-13.258,36.212,23.2,5.718,43.089,3.812,29.831-4.765,29.831-4.765l3.315-29.541-13.258-7.624Z" transform="translate(-399.192 2884.652)" fill="#0077b6"/>
      <path id="Path_663" data-name="Path 663" d="M793.223,241.9V223.791s-20.012-40.023-3.812-40.023,18.106,36.212,18.106,36.212v25.729Z" transform="translate(-391.123 2887.9)" fill="#ffb8b8"/>
      <path id="Path_664" data-name="Path 664" d="M688.968,338.657s-10.482-5.718-12.388,0-7.624,18.106,0,19.059S691.827,352,691.827,352Z" transform="translate(-458.397 2980.774)" fill="#ffb8b8"/>
      <path id="Path_665" data-name="Path 665" d="M715.6,364.691s-5.738,7.578,2.587,81.511,3.528,127.766,19.333,127.028c0,0-4.125,16.032,9.3,16.623s19.565,1.523,20.611-2.181,2.682-20.838-.965-20.667c0,0,.227,4.863,1.75-14.7s-2.79-111.961,2.721-124.4l21.552,44.074s.965,20.667,5.066,30.223,12.791,65.2,12.791,65.2l-.818,8.567s29.4,3.5,30.393-1.419.648-12.214-.681-14.589-1.329-2.375.875-7.351a14.737,14.737,0,0,0,.648-12.214c-1.386-3.59-5.075-82.613-5.075-82.613s-6.916-95.93-21.731-100.111S715.6,364.691,715.6,364.691Z" transform="translate(-433.436 2993.34)" fill="#00b4d8"/>
      <path id="Path_666" data-name="Path 666" d="M739.016,495.659l-8.931,17.474s-15.452-4.761-11.76,9.078a243.208,243.208,0,0,0,44.346-2.68s6.192,2.148,7.238-1.556-3.806-16.271-7.453-16.1S739.016,495.659,739.016,495.659Z" transform="translate(-430.947 3078.035)" fill="#2f2e41"/>
      <path id="Path_667" data-name="Path 667" d="M776.871,492.6s-8.7,22.337-5,23.383,36.756,4.376,39.244,5.478,14.7,1.75,15.578-5.6-6.533-9.442-6.533-9.442-13.487-1.807-17.7-13.794S776.871,492.6,776.871,492.6Z" transform="translate(-398.516 3072.936)" fill="#2f2e41"/>
      <ellipse id="Ellipse_86" data-name="Ellipse 86" cx="25.455" cy="25.455" rx="25.455" ry="25.455" transform="translate(270.369 3125.884)" fill="#ffb8b8"/>
      <path id="Path_668" data-name="Path 668" d="M715.033,243.324s6.7,34.834,4.019,41.532,37.513-2.679,37.513-2.679-8.038-34.834-6.7-42.872S715.033,243.324,715.033,243.324Z" transform="translate(-432.606 2920.072)" fill="#ffb8b8"/>
      <path id="Path_669" data-name="Path 669" d="M733.861,213.819a14.388,14.388,0,0,0-6.368.281,16.607,16.607,0,0,0-4.525,2.969,52.963,52.963,0,0,1-7.737,5.126,18.053,18.053,0,0,0-6.02,4.22,12.8,12.8,0,0,0-1.7,3.216,38.539,38.539,0,0,0-2.026,20.976,9.645,9.645,0,0,0,.893,2.88c1.392,2.566,4.468,3.577,7.059,4.921,4.919,2.553,8.647,6.853,12.682,10.653a24.789,24.789,0,0,0,5.011,3.861c5.755,3.138,12.791,2.114,19.251,1a3.469,3.469,0,0,0,3.463-3.5l5.1-22.937a37.42,37.42,0,0,0,1.307-10.432c-.356-5.568-3.37-13.281-7.457-17.236C748.031,215.211,740.085,214.477,733.861,213.819Z" transform="translate(-438.809 2906.079)" fill="#2f2e41"/>
      <path id="Path_670" data-name="Path 670" d="M721.7,274.724s1.906-13.341,13.341-14.294a94.271,94.271,0,0,0,19.059-3.812c.953,0,13.341.953,19.059,6.671,0,0,3.812,5.718,5.718,1.906s1.906-5.718,5.718-3.812,3.812-5.718,10.482-4.765S818.9,300.453,818.9,300.453l-5.718,6.671s-7.624,51.459,5.718,73.376,19.059,45.741,5.718,50.506S717.889,478.653,721.7,451.97s.953-68.611-2.859-69.564-24.776-76.235-24.776-76.235a29.6,29.6,0,0,1,17.153-21.918C726.466,277.583,721.7,274.724,721.7,274.724Z" transform="translate(-445.388 2932.261)" fill="#575a88"/>
      <path id="Path_671" data-name="Path 671" d="M753.861,284.941l4.765-3.812s8.576,0,9.529-1.906,5.718-1.906,9.529-3.812-.953-4.765,3.812-6.671,4.765,0,4.765-4.765,12.388-9.529,13.341-15.247,10.482-32.4,10.482-32.4l18.106,5.718-4.765,34.306s0,17.153-8.576,28.588-27.635,40.023-37.165,40.976S753.861,284.941,753.861,284.941Z" transform="translate(-408.936 2907.75)" fill="#575a88"/>
      <path id="Path_672" data-name="Path 672" d="M707.363,284.412l-5.718,4.765s-1.906,20.965-1.906,21.918,1.906,12.388,0,13.341-5.718,20.012-4.765,20.965h0v2.859l-13.341,20.965v20.012l31.447-20.012s18.106-1.906,15.247-18.106S707.363,284.412,707.363,284.412Z" transform="translate(-452.967 2949.255)" fill="#575a88"/>
      <ellipse id="Ellipse_87" data-name="Ellipse 87" cx="17.706" cy="17.706" rx="17.706" ry="17.706" transform="translate(79.562 3640.944)" fill="#0077b6"/>
    </g>
  </g>
</svg>
