<svg xmlns="http://www.w3.org/2000/svg" width="728.081" height="680.001" viewBox="0 0 728.081 680.001">
  <path id="Path_339" data-name="Path 339" d="M790.764,271.594h-3.736V169.24A59.24,59.24,0,0,0,727.788,110H510.942a59.24,59.24,0,0,0-59.24,59.24V730.76A59.24,59.24,0,0,0,510.942,790h216.85a59.24,59.24,0,0,0,59.24-59.24V344.451h3.732Z" transform="translate(-235.959 -110)" fill="#3f3d56"/>
  <path id="Path_340" data-name="Path 340" d="M774.954,165.275V734.728a44.928,44.928,0,0,1-44.906,44.923H508.735a44.938,44.938,0,0,1-44.941-44.932V165.276a44.936,44.936,0,0,1,44.941-44.922H535.58a21.364,21.364,0,0,0,19.764,29.411H681.512a21.364,21.364,0,0,0,19.76-29.415h28.756a44.928,44.928,0,0,1,44.922,44.9Z" transform="translate(-235.959 -110)" fill="#e6e6e6"/>
  <path id="Path_788" data-name="Path 788" d="M751.374,749.925h-264a8.51,8.51,0,0,1-8.5-8.5v-555a8.509,8.509,0,0,1,8.5-8.5h264a8.51,8.51,0,0,1,8.5,8.5v555a8.51,8.51,0,0,1-8.5,8.5Z" transform="translate(-235.959 -110)" fill="#fff"/>
  <circle id="Ellipse_56" data-name="Ellipse 56" cx="72.736" cy="72.736" r="72.736" transform="translate(309.679 109.835)" fill="#e6e6e6"/>
  <circle id="Ellipse_60" data-name="Ellipse 60" cx="62.889" cy="62.889" r="62.889" transform="translate(318.526 119.682)" fill="#fff"/>
  <path id="Path_341" data-name="Path 341" d="M618.774,256.9a35.856,35.856,0,1,0,35.856,35.856A35.856,35.856,0,0,0,618.774,256.9Zm0,10.757a10.757,10.757,0,1,1-10.757,10.757,10.757,10.757,0,0,1,10.757-10.757Zm0,51.784A26.121,26.121,0,0,1,597.26,307.96c.172-7.171,14.342-11.119,21.514-11.119s21.341,3.948,21.514,11.119a26.164,26.164,0,0,1-21.514,11.484Z" transform="translate(-235.959 -110)" fill="#1177b6"/>
  <rect id="Rectangle_26" data-name="Rectangle 26" width="125.838" height="9.458" transform="translate(316.605 279.75)" fill="#e6e6e6"/>
  <rect id="Rectangle_27" data-name="Rectangle 27" width="158.368" height="9.458" transform="translate(299.768 304.327)" fill="#e6e6e6"/>
  <rect id="Rectangle_25-2" data-name="Rectangle 25-2" width="223.094" height="223.094" transform="translate(271.868 374.923)" fill="#e6e6e6"/>
  <rect id="Rectangle_25-3" data-name="Rectangle 25-3" width="213.655" height="213.655" transform="translate(275.415 379.643)" fill="#fff"/>
  <rect id="Rectangle_28" data-name="Rectangle 28" width="83.168" height="6.251" transform="translate(319.416 400.267)" fill="#e6e6e6"/>
  <rect id="Rectangle_29" data-name="Rectangle 29" width="128.429" height="6.251" transform="translate(319.416 418.619)" fill="#1177b6"/>
  <rect id="Rectangle_30" data-name="Rectangle 30" width="104.667" height="6.251" transform="translate(320.75 436.096)" fill="#e6e6e6"/>
  <rect id="Rectangle_31" data-name="Rectangle 31" width="61.103" height="6.251" transform="translate(319.416 455.271)" fill="#e6e6e6"/>
  <rect id="Rectangle_32" data-name="Rectangle 32" width="92.22" height="6.251" transform="translate(319.416 474.003)" fill="#1177b6"/>
  <rect id="Rectangle_38" data-name="Rectangle 38" width="83.168" height="6.251" transform="translate(319.416 492.851)" fill="#e6e6e6"/>
  <rect id="Rectangle_39" data-name="Rectangle 39" width="128.429" height="6.251" transform="translate(319.416 511.202)" fill="#1177b6"/>
  <rect id="Rectangle_40" data-name="Rectangle 40" width="104.667" height="6.251" transform="translate(320.75 528.679)" fill="#e6e6e6"/>
  <rect id="Rectangle_41" data-name="Rectangle 41" width="61.103" height="6.251" transform="translate(319.416 547.855)" fill="#e6e6e6"/>
  <rect id="Rectangle_42" data-name="Rectangle 42" width="92.22" height="6.251" transform="translate(319.416 566.587)" fill="#e6e6e6"/>
  <g id="Group_23" data-name="Group 23">
    <path id="Path_385" data-name="Path 385" d="M928.727,595.026a9.13,9.13,0,0,1-15.852-9.064l.062-.106a9.814,9.814,0,0,1,.86-1.22l-7.68-54.74-.23-1.64-1.56-11.17-.23-1.61.85.04,14.88.68,3.99.18.5,10.19,2.83,57.29A9.118,9.118,0,0,1,928.727,595.026Z" transform="translate(-235.959 -109.999)" fill="#ffb8b8"/>
    <path id="Path_386" data-name="Path 386" d="M905.931,528.751l18.9-1.733a3.73,3.73,0,0,0,3.364-4.037l-3.5-39.292a14.326,14.326,0,0,0-28.539,2.548q.036.406.1.809l5.666,38.54a3.724,3.724,0,0,0,3.678,3.181A2.646,2.646,0,0,0,905.931,528.751Z" transform="translate(-235.959 -109.999)" fill="#6c63ff"/>
    <path id="Path_387" data-name="Path 387" d="M920.253,497.008a26.316,26.316,0,0,0-9.679-30.288c-7.125-4.875-16.875-6.625-27.375,5.875-21,25-26.5,52.5-26.5,52.5l43,7S914.322,514.22,920.253,497.008Z" transform="translate(-235.959 -109.999)" fill="#6c63ff"/>
    <path id="Path_388" data-name="Path 388" d="M850.706,778.614h-12.26l-5.832-47.288h18.094Z" transform="translate(-235.959 -109.999)" fill="#ffb8b8"/>
    <path id="Path_389" data-name="Path 389" d="M814.805,790h38.531V775.11H829.692A14.887,14.887,0,0,0,814.805,790Z" transform="translate(-235.959 -109.999)" fill="#2f2e41"/>
    <path id="Path_390" data-name="Path 390" d="M951.5,767.921l-11.64,3.848L919.48,728.7l17.18-5.679Z" transform="translate(-235.959 -109.999)" fill="#ffb8b8"/>
    <path id="Path_391" data-name="Path 391" d="M920.983,790l36.584-12.092L952.9,763.77l-22.45,7.42A14.887,14.887,0,0,0,920.983,790Z" transform="translate(-235.959 -109.999)" fill="#2f2e41"/>
    <circle id="Ellipse_65" data-name="Ellipse 65" cx="24.561" cy="24.561" r="24.561" transform="translate(632.74 295.2)" fill="#ffb8b8"/>
    <path id="Path_392" data-name="Path 392" d="M871.755,765.451l11.385-75.145a3.5,3.5,0,0,1,6.862-.3l17.338,71.612A4.533,4.533,0,0,0,912.428,765l47.825-7.686a4.5,4.5,0,0,0,3.593-5.75l-62.361-205.6a3.5,3.5,0,0,1-.061-1.8l2.076-9a4.484,4.484,0,0,0-2.327-5.014c-8.492-4.333-30-13.341-46.231-3.474a4.551,4.551,0,0,0-2.079,2.927l-48.716,228.97a4.5,4.5,0,0,0,4,5.419l58.757,5.262q.2.018.4.018a4.508,4.508,0,0,0,4.448-3.825Z" transform="translate(-235.959 -109.999)" fill="#2f2e41"/>
    <path id="Path_393" data-name="Path 393" d="M909.546,412.407a18.579,18.579,0,0,1-4.855-4.22,6.3,6.3,0,0,1-.97-6.1c1.241-2.738,4.928-3.6,7.786-2.671s5.065,3.172,7.153,5.333c1.839,1.9,3.731,3.892,4.6,6.391s.424,5.668-1.746,7.185c-2.13,1.488-5.192.879-7.24-.719s-3.316-3.97-4.525-6.27Z" transform="translate(-235.959 -109.999)" fill="#2f2e41"/>
    <path id="Path_394" data-name="Path 394" d="M917.865,405.409c.136-6.92,8.024-11.883,14.837-10.656s12.049,7.035,14.67,13.441c5.538,13.535,1.381,28.979-3.955,42.6s-11.94,27.439-11.161,42.043a43.925,43.925,0,0,0,25.515,37c-7.688,3.485-16.878-.115-23.339-5.548-14.348-12.065-19.886-33.546-13.161-51.044,3.317-8.631,9.163-16.015,13.727-24.056s7.913-17.518,5.556-26.459-12.385-16.179-20.958-12.72Z" transform="translate(-235.959 -109.999)" fill="#2f2e41"/>
    <path id="Path_395" data-name="Path 395" d="M891.787,440.659c2.141-3.618,4.3-8.368.388-11.531a8.064,8.064,0,0,0-6.05-1.6c-4.412.532-9.217.751-13.488-.852a12.644,12.644,0,0,1-7.335-6.591c-2.2-5.224.556-11.572,5.165-14.874a17.4,17.4,0,0,1,19.258-.341c5.97-2.637,13.213-1.464,18.637,2.166s9.135,9.443,11.151,15.65a30.206,30.206,0,0,1,.923,16.615A24.692,24.692,0,0,1,905.12,456.18a8.892,8.892,0,0,1-8.782-1.3s-3.385-2.955-4.444-6.514C891.079,445.629,890.644,442.592,891.787,440.659Z" transform="translate(-235.959 -109.999)" fill="#2f2e41"/>
    <path id="Path_397" data-name="Path 397" d="M818.925,462.575a10.523,10.523,0,0,1,.239,1.64L862.121,489l10.441-6.011,11.131,14.572L866.243,510a8,8,0,0,1-9.6-.234l-44.3-34.946a10.5,10.5,0,1,1,6.576-12.241Z" transform="translate(-235.959 -109.999)" fill="#ffb8b8"/>
    <path id="Path_398" data-name="Path 398" d="M863.558,490.171l13.884,17.994a4.5,4.5,0,0,0,6.8.373l15.717-16.321a12.5,12.5,0,1,0-14.926-20.056q-.2.152-.4.312L864.92,483.5a4.5,4.5,0,0,0-1.365,6.676Z" transform="translate(-235.959 -109.999)" fill="#6c63ff"/>
  </g>
  <g id="Group_24" data-name="Group 24">
    <path id="Path_552" data-name="Path 552" d="M359.66,533.056a10.1,10.1,0,0,0-1.411.787L313.4,514.7l-1.6-11.815-17.922-.11,1.059,27.1,59.2,15.658a10.612,10.612,0,0,0,.448,1.208,10.235,10.235,0,1,0,5.079-13.682Z" transform="translate(-235.959 -109.999)" fill="#a0616a"/>
    <path id="Path_553" data-name="Path 553" d="M287.357,778.615h12.26l5.832-47.288H287.355Z" transform="translate(-235.959 -109.999)" fill="#a0616a"/>
    <path id="Path_554" data-name="Path 554" d="M308.374,775.112H284.73v14.882h38.531a14.887,14.887,0,0,0-14.887-14.887h0Z" transform="translate(-235.959 -109.999)" fill="#2f2e41"/>
    <path id="Path_555" data-name="Path 555" d="M239.677,775.151l12.2,1.2,10.441-46.488-18.007-1.769Z" transform="translate(-235.959 -109.999)" fill="#a0616a"/>
    <path id="Path_556" data-name="Path 556" d="M260.944,773.728l-23.526-2.317-1.459,14.813L274.3,790a14.884,14.884,0,0,0-13.354-16.271Z" transform="translate(-235.959 -109.999)" fill="#2f2e41"/>
    <circle id="Ellipse_84" data-name="Ellipse 84" cx="24.561" cy="24.561" r="24.561" transform="translate(23.424 293.608)" fill="#a0616a"/>
    <path id="Path_557" data-name="Path 557" d="M302.357,769.052a4.471,4.471,0,0,0,4.415-3.7c6.341-35.219,27.088-150.4,27.584-153.593a1.418,1.418,0,0,0,.016-.222v-8.588a1.489,1.489,0,0,0-.279-.872l-2.74-3.838a1.479,1.479,0,0,0-1.144-.625c-15.622-.732-66.784-2.879-69.256.209h0c-2.482,3.1-1.6,12.507-1.4,14.36l-.01.193-22.985,147a4.512,4.512,0,0,0,3.715,5.135l14.356,2.365a4.521,4.521,0,0,0,5.025-3.093c4.44-14.188,19.329-61.918,24.489-80.387a.5.5,0,0,1,.981.139c-.258,17.606-.881,62.523-1.1,78.037L284,763.243a4.518,4.518,0,0,0,4.093,4.536l13.843,1.254A4.179,4.179,0,0,0,302.357,769.052Z" transform="translate(-235.959 -109.999)" fill="#2f2e41"/>
    <path id="Path_99" data-name="Path 99" d="M299.532,462.387c4.286,2.548,6.851,7.23,8.323,12a113.684,113.684,0,0,1,4.884,27.159l1.556,27.6,19.255,73.17c-16.689,14.121-26.315,10.911-48.781-.639s-25.032,3.851-25.032,3.851l-4.492-62.258-6.418-68.032a30.172,30.172,0,0,1,4.862-4.674,49.659,49.659,0,0,1,42.442-9Z" transform="translate(-235.959 -109.999)" fill="#e6e6e6"/>
    <path id="Path_558" data-name="Path 558" d="M305.786,547.833a10.53,10.53,0,0,0-1.5.7l-44.35-22.2-.736-12.026-18.294-1.261-.98,27.413,59.266,19.6a10.5,10.5,0,1,0,6.593-12.232Z" transform="translate(-235.959 -109.999)" fill="#a0616a"/>
    <path id="Path_101" data-name="Path 101" d="M249.147,475.544c-10.911,3.851-12.834,45.574-12.834,45.574,12.837-7.06,28.241,4.493,28.241,4.493s3.209-10.912,7.06-25.032a24.53,24.53,0,0,0-5.134-23.106S260.059,471.691,249.147,475.544Z" transform="translate(-235.959 -109.999)" fill="#e6e6e6"/>
    <path id="Path_102" data-name="Path 102" d="M261.926,434.664c3.06-2.448,7.235,2,7.235,2l2.448-22.031s15.3,1.833,25.094-.612,11.323,8.875,11.323,8.875a78.585,78.585,0,0,0,.306-13.771c-.612-5.508-8.568-11.017-22.645-14.689s-21.421,12.241-21.421,12.241C254.468,411.572,258.862,437.112,261.926,434.664Z" transform="translate(-235.959 -109.999)" fill="#2f2e41"/>
  </g>
</svg>
